<?xml version="1.0" standalone="no"?>
<!DOCTYPE svg PUBLIC "-//W3C//DTD SVG 20010904//EN"
 "http://www.w3.org/TR/2001/REC-SVG-20010904/DTD/svg10.dtd">
<svg version="1.0" xmlns="http://www.w3.org/2000/svg"
 width="800.000000pt" height="800.000000pt" viewBox="0 0 800.000000 800.000000"
 preserveAspectRatio="xMidYMid meet">
<metadata>
Created by potrace 1.11, written by Peter Selinger 2001-2013
</metadata>
<g transform="translate(0.000000,800.000000) scale(0.100000,-0.100000)"
fill="#000000" stroke="none">
<path d="M3760 6419 c-642 -43 -1175 -262 -1545 -633 -405 -406 -613 -952
-619 -1623 -1 -145 0 -153 23 -183 23 -31 23 -33 5 -43 -11 -5 -55 -46 -99
-91 -141 -144 -208 -309 -209 -511 -1 -308 172 -572 452 -690 105 -44 165 -55
298 -56 l113 0 55 -110 c120 -239 253 -430 410 -584 104 -103 273 -237 358
-283 26 -15 48 -30 48 -33 1 -32 -72 12 -428 259 -355 246 -403 283 -432 328
-56 88 -156 181 -239 222 -75 37 -75 37 -206 37 -119 0 -134 -2 -179 -25 -74
-38 -172 -134 -209 -204 -30 -58 -32 -67 -32 -172 0 -108 1 -112 39 -188 45
-91 124 -176 205 -220 63 -34 166 -46 224 -27 47 16 121 82 155 139 55 95 28
226 -68 322 -33 33 -47 40 -78 40 -76 0 -101 -73 -45 -133 78 -84 84 -129 23
-189 -36 -37 -44 -40 -79 -35 -80 10 -182 108 -216 206 -33 97 -11 183 65 258
65 64 101 78 200 78 103 0 156 -22 234 -99 74 -72 122 -159 240 -432 57 -132
140 -315 185 -408 45 -93 80 -170 79 -172 -2 -1 -53 1 -113 5 l-110 7 -124 77
c-69 42 -129 77 -136 77 -6 0 -91 -27 -189 -60 l-179 -60 -246 15 c-135 8
-294 18 -352 21 -102 7 -107 6 -121 -15 -16 -22 -18 -22 -91 -10 -68 11 -78
11 -101 -5 -56 -36 -63 -126 -15 -180 25 -30 30 -41 24 -67 -7 -30 -7 -31 -55
-24 -80 11 -130 -26 -130 -98 0 -76 13 -91 180 -207 107 -74 159 -116 163
-132 3 -13 15 -75 27 -138 19 -96 28 -123 58 -165 20 -27 48 -76 64 -107 39
-81 58 -91 190 -96 105 -4 110 -4 104 14 -3 11 1 53 9 94 27 138 33 152 114
250 25 30 60 76 76 102 30 48 49 63 66 52 24 -14 -2 -87 -97 -279 -26 -53 -64
-189 -64 -231 0 -2 14 -4 30 -4 17 0 30 2 30 4 0 38 40 169 70 231 21 44 53
111 69 149 27 61 33 67 47 55 20 -17 15 -63 -23 -191 -15 -51 -29 -128 -32
-171 l-6 -77 936 0 c845 0 937 2 943 16 3 9 6 39 6 67 l1 52 75 59 76 59 66
-66 c75 -76 76 -72 -21 -140 l-60 -42 342 -3 c188 -1 492 -1 675 0 l332 3 -22
110 c-21 106 -21 116 -7 255 16 165 47 302 92 411 29 71 104 192 152 249 l21
25 19 -24 c88 -109 283 -536 414 -906 l43 -120 56 -3 55 -3 -43 123 c-90 253
-128 349 -222 560 l-35 78 102 122 c130 157 135 168 109 250 l-20 63 37 33
c40 35 51 36 184 16 35 -5 46 2 240 157 112 90 207 168 212 173 4 6 6 24 5 40
-3 27 -11 33 -75 60 l-73 30 6 67 c8 82 0 117 -29 128 -30 12 -44 3 -187 -118
-69 -58 -134 -113 -145 -121 -19 -14 -19 -14 -4 5 251 310 256 325 111 347
l-69 10 -13 71 c-15 87 -32 117 -65 117 -30 0 -28 3 -214 -245 l-151 -200 0
-117 c0 -65 -4 -119 -10 -123 -5 -3 -39 18 -75 48 -36 30 -101 74 -145 99
l-80 45 52 40 c88 67 249 234 328 342 88 118 159 235 236 384 l55 107 109 0
c167 0 280 32 411 116 316 201 430 615 264 955 -55 112 -174 248 -260 297 -16
8 -16 11 -1 40 21 41 22 319 2 482 -67 533 -264 965 -591 1295 -196 199 -414
343 -677 451 -386 158 -852 225 -1338 193z m-142 -1264 c90 -21 178 -61 251
-113 103 -73 156 -70 276 18 92 68 275 120 420 120 72 0 217 -23 290 -46 28
-9 90 -37 139 -63 204 -106 326 -290 326 -493 0 -89 45 -143 141 -165 87 -20
147 -53 201 -110 44 -48 119 -185 134 -247 l7 -29 -104 7 c-57 3 -200 7 -316
8 -117 2 -213 4 -213 5 0 6 175 38 347 63 114 17 209 32 211 35 18 18 -102 92
-266 164 -107 47 -94 48 -272 -20 -118 -44 -192 -75 -472 -198 -65 -28 -128
-51 -141 -51 -13 0 -61 -11 -108 -25 -146 -44 -236 -55 -453 -55 -225 0 -303
9 -425 46 -47 14 -110 28 -140 32 -41 4 -118 33 -287 108 -205 90 -370 156
-486 193 -35 12 -44 10 -140 -34 -175 -78 -275 -142 -255 -162 2 -2 98 -17
213 -34 178 -25 330 -54 342 -64 2 -2 -108 -3 -245 -4 -136 0 -285 -4 -331 -9
-46 -4 -85 -5 -88 -1 -5 9 50 142 81 194 57 97 146 161 264 188 98 23 141 77
141 177 0 268 221 494 550 564 41 8 89 18 105 20 53 8 238 -4 303 -19z m-468
-1225 c376 -20 401 -25 426 -86 31 -75 3 -374 -45 -475 -31 -65 -94 -125 -156
-148 -90 -34 -193 -41 -573 -41 -552 1 -632 13 -679 110 -24 49 -48 183 -59
327 -6 83 -5 94 14 121 12 16 29 62 39 100 15 66 19 72 47 78 17 4 186 10 376
14 190 4 365 7 390 8 25 1 124 -3 220 -8z m2230 -23 c0 -7 13 -21 30 -30 63
-38 145 -148 123 -167 -9 -8 -145 -22 -458 -45 -110 -9 -252 -22 -315 -30
-222 -28 -257 -40 -201 -69 17 -9 40 -34 50 -55 26 -50 104 -118 150 -131 20
-5 52 -10 71 -9 l35 1 -42 14 c-66 24 -173 130 -173 172 0 10 26 16 116 28
l52 6 11 -34 c13 -40 74 -102 116 -118 43 -16 136 -14 181 5 68 28 105 74 118
146 7 41 6 41 204 55 88 6 92 6 92 -14 0 -40 -64 -145 -110 -181 -42 -32 -43
-34 -15 -27 46 11 111 53 135 85 45 65 62 163 40 240 -13 46 -67 114 -115 145
l-40 26 204 -2 204 -3 27 -80 c18 -56 37 -91 61 -116 40 -40 39 -19 13 -249
-22 -195 -47 -240 -146 -268 -74 -20 -854 -30 -995 -12 -268 33 -348 139 -360
480 -8 214 4 230 172 241 55 3 250 6 433 7 264 2 332 -1 332 -11z m-3614 -142
c9 -45 19 -65 42 -84 24 -20 33 -40 42 -86 35 -179 120 -468 211 -712 27 -72
49 -134 49 -137 0 -11 -115 -6 -182 9 -141 29 -288 133 -370 259 -107 166
-120 405 -31 581 49 96 186 242 218 232 5 -2 15 -30 21 -62z m4639 -47 c59
-66 121 -193 136 -282 33 -193 -28 -384 -165 -522 -108 -107 -230 -162 -384
-171 l-94 -6 18 39 c70 159 254 772 254 846 0 9 20 34 44 54 39 32 45 44 51
88 4 28 9 54 12 59 6 11 73 -44 128 -105z m-2193 56 c63 -33 89 -77 148 -259
59 -179 73 -208 125 -264 52 -56 153 -107 240 -121 97 -16 507 -22 795 -12
245 8 281 11 323 30 26 11 47 17 47 13 0 -15 -79 -238 -116 -328 -225 -545
-457 -851 -819 -1078 l-90 -56 -3 64 c-3 72 -20 99 -47 77 -18 -15 -21 -110
-5 -140 8 -15 6 -21 -9 -30 -35 -18 -41 -12 -41 41 0 47 -2 50 -22 47 -21 -3
-23 -9 -26 -63 -2 -42 -8 -64 -19 -72 -26 -20 -33 -16 -33 21 0 19 -5 38 -10
41 -21 13 -40 -17 -40 -62 0 -36 -4 -45 -22 -52 -21 -8 -23 -5 -26 23 -5 60
-12 76 -32 76 -18 0 -20 -7 -20 -66 0 -68 -3 -72 -65 -87 -5 -1 -12 23 -15 53
-4 47 -8 55 -25 55 -18 0 -20 -8 -23 -65 -3 -58 -12 -79 -34 -80 -4 0 -8 33
-10 73 -3 64 -5 72 -23 72 -18 0 -21 -8 -25 -80 -4 -66 -8 -80 -22 -83 -16 -3
-18 7 -18 95 0 105 -7 127 -36 121 -17 -3 -19 -15 -22 -121 -2 -109 -4 -117
-22 -117 -19 0 -20 7 -20 134 0 104 -3 135 -14 139 -29 11 -36 -16 -36 -150 0
-126 -1 -133 -20 -133 -18 0 -20 8 -22 153 -3 149 -3 152 -25 155 l-23 3 0
-155 0 -156 -25 0 -24 0 -3 153 c-3 149 -3 152 -25 155 -23 3 -23 3 -23 -146
0 -82 -3 -151 -6 -155 -3 -3 -12 -3 -20 0 -11 4 -14 31 -14 123 0 131 -4 150
-30 150 -26 0 -30 -19 -30 -147 0 -104 -2 -114 -17 -111 -16 3 -19 19 -23 113
-5 102 -7 110 -25 110 -19 0 -20 -8 -23 -103 -2 -91 -5 -103 -20 -100 -14 3
-18 18 -22 78 -4 67 -7 75 -25 75 -18 0 -20 -8 -23 -62 -2 -42 -7 -63 -15 -63
-25 0 -37 25 -37 77 0 46 -3 53 -20 53 -17 0 -20 -7 -20 -44 0 -25 -3 -47 -8
-50 -4 -2 -22 2 -39 9 -29 13 -32 18 -35 67 -3 45 -6 53 -23 53 -16 0 -21 -8
-23 -42 l-3 -43 -28 15 c-21 11 -27 20 -24 37 2 13 -2 32 -10 43 -13 16 -17
17 -31 6 -9 -7 -16 -22 -16 -32 0 -16 -3 -17 -25 -7 -22 10 -25 17 -25 65 0
51 -2 54 -22 51 -19 -2 -24 -10 -26 -41 -3 -33 -5 -36 -23 -27 -16 9 -19 22
-19 80 0 46 -4 70 -12 73 -28 9 -38 -6 -38 -59 0 -59 -4 -62 -39 -38 -16 12
-20 19 -12 27 17 17 14 162 -4 177 -26 21 -35 0 -35 -81 0 -43 -4 -79 -9 -79
-16 0 -146 105 -230 185 -219 210 -388 480 -543 868 -33 83 -118 323 -118 334
0 1 17 -6 38 -17 71 -37 141 -42 622 -43 399 -1 475 1 536 15 180 41 280 137
328 313 28 99 87 248 113 282 37 51 58 57 198 64 150 7 219 2 257 -17z m798
-183 c0 -23 -15 -34 -60 -47 -61 -17 -86 -1 -69 44 7 19 15 22 69 22 52 0 60
-2 60 -19z m811 -1615 c-4 -6 -57 -74 -116 -151 -134 -174 -125 -165 -125
-129 0 23 28 68 117 187 111 148 118 156 125 130 4 -15 4 -32 -1 -37z m-3213
-240 l271 -188 -17 -24 c-9 -13 -34 -30 -55 -39 -92 -37 -174 -81 -203 -107
l-30 -28 -62 127 c-61 127 -141 310 -181 411 -15 37 -17 51 -8 45 8 -4 136
-93 285 -197z m3330 174 c-9 -28 -231 -298 -248 -303 -11 -3 -20 -2 -20 1 0 4
37 54 81 112 44 58 97 126 117 153 21 26 44 47 55 47 10 0 17 -5 15 -10z m202
-199 c0 -24 -15 -41 -97 -107 -53 -43 -121 -100 -152 -126 -39 -33 -57 -43
-59 -33 -2 8 1 22 6 31 7 13 290 262 300 264 1 0 2 -13 2 -29z m99 -118 c0 -5
-65 -60 -144 -123 -92 -74 -154 -116 -172 -118 -27 -3 -26 -1 21 39 136 118
253 208 274 208 12 1 22 -2 21 -6z m-503 -100 c-2 -10 -12 -53 -22 -96 -13
-55 -24 -82 -37 -89 -22 -11 -18 -14 -86 71 -49 62 -50 64 -33 87 13 17 30 24
72 29 30 3 62 8 70 9 34 8 41 6 36 -11z m-2416 -95 c144 -237 305 -458 472
-651 38 -42 68 -79 68 -81 0 -2 -30 -34 -67 -71 l-67 -68 -34 39 c-56 64 -233
302 -293 394 -116 177 -269 442 -269 467 0 10 88 40 125 42 15 1 32 -18 65
-71z m1454 50 c22 -6 42 -12 44 -13 10 -7 -183 -338 -288 -495 -154 -229 -353
-473 -514 -629 l-87 -85 -70 70 -69 69 133 135 c142 145 312 341 430 497 85
112 277 400 277 414 0 9 75 48 94 49 5 0 27 -5 50 -12z m-1144 -154 c0 -40 25
-58 45 -31 12 17 28 -2 177 -206 l57 -78 -21 -35 c-11 -19 -23 -34 -28 -34 -8
0 -170 207 -238 305 -36 52 -41 65 -36 97 6 33 9 36 25 27 13 -7 19 -21 19
-45z m750 21 c0 -15 -83 -136 -174 -255 -67 -87 -228 -280 -233 -280 -3 0 -13
10 -23 22 -17 22 -17 24 17 78 51 80 179 256 232 319 25 30 51 64 56 75 16 31
35 31 35 1 0 -22 4 -26 23 -23 15 2 23 11 25 28 2 14 5 31 7 38 6 17 35 15 35
-3z m-1469 -199 c68 -102 120 -208 155 -310 13 -38 24 -72 24 -74 0 -14 -39
50 -54 88 -48 122 -136 256 -242 369 -42 45 -75 83 -73 85 34 28 44 25 87 -21
24 -25 70 -87 103 -137z m2282 173 c12 -7 24 -13 26 -15 2 -2 -29 -38 -68 -80
-172 -184 -276 -396 -318 -649 -21 -130 -30 -95 -14 56 20 185 98 369 238 568
47 66 102 131 110 131 2 0 14 -5 26 -11z m-3063 -86 c189 -115 342 -214 385
-248 22 -17 65 -48 95 -68 l55 -37 -38 0 c-71 0 -111 -42 -82 -86 22 -35 35
-30 32 14 -2 37 -2 37 38 40 50 3 69 -9 61 -36 -7 -21 -70 -52 -109 -52 -25
-1 -98 -48 -105 -69 -3 -8 1 -12 9 -8 8 2 13 9 12 15 -1 5 6 8 16 5 11 -3 30
1 42 8 13 7 29 12 36 11 7 -2 30 6 51 17 l38 19 0 -34 c0 -33 -2 -35 -75 -65
-42 -17 -96 -40 -121 -51 -39 -17 -50 -18 -83 -7 -48 16 -71 4 -75 -39 -4 -42
-43 -52 -83 -20 -15 13 -89 73 -163 133 -74 61 -169 134 -210 163 -138 97
-296 224 -296 238 0 8 8 22 19 33 10 10 20 23 22 28 4 9 400 172 409 168 3 -1
57 -34 120 -72z m1782 40 c2 -30 7 -38 23 -38 16 0 21 8 23 38 4 51 46 49 49
-2 4 -57 53 -53 53 4 0 28 4 35 20 35 35 0 23 -34 -42 -124 -35 -47 -65 -85
-68 -85 -3 0 -28 34 -57 75 -44 62 -51 80 -46 104 9 46 41 41 45 -7z m-2353
-159 c-16 -20 -29 -17 -29 5 0 14 5 18 20 14 16 -4 18 -8 9 -19z m-43 -18 c6
-24 208 -189 369 -301 74 -52 184 -139 302 -239 54 -46 68 -63 57 -69 -14 -8
-65 26 -632 416 -236 162 -252 192 -110 216 4 0 10 -10 14 -23z m-560 -212
c93 -63 169 -116 171 -117 1 -2 -18 -7 -43 -13 l-45 -10 -112 82 c-74 54 -115
79 -122 73 -7 -7 -5 -13 5 -19 35 -20 210 -153 210 -159 0 -4 -10 -17 -22 -29
l-23 -21 -115 82 c-64 45 -127 89 -140 98 -27 18 -21 35 16 49 16 6 24 18 24
32 0 32 11 68 20 68 4 0 83 -52 176 -116z m253 42 c-14 -6 -33 -17 -43 -25
-13 -11 -19 -11 -31 -1 -23 19 -19 26 23 43 27 11 42 12 57 4 19 -10 19 -11
-6 -21z m1564 -120 c37 -33 38 -35 18 -46 -16 -8 -31 -7 -62 3 -24 8 -37 17
-30 21 17 11 13 47 -6 69 -18 19 -18 20 12 3 17 -8 47 -31 68 -50z m-1293 -78
c18 -11 16 -14 -27 -35 -35 -18 -49 -21 -59 -12 -20 17 -17 27 14 43 33 19 47
19 72 4z m1275 -13 c14 -13 25 -29 25 -34 0 -22 -22 -21 -44 2 -12 13 -28 26
-36 29 -17 5 -4 28 16 28 8 0 26 -11 39 -25z m-1466 -157 c-35 -32 -66 -58
-69 -58 -3 0 -18 11 -35 24 -27 21 -28 26 -17 50 10 23 15 25 33 16 11 -7 23
-9 26 -6 8 7 -17 36 -31 36 -7 0 -11 21 -11 53 l0 54 84 -56 84 -56 -64 -57z
m-166 99 c-3 -40 -36 -113 -54 -119 -18 -6 -13 -61 9 -111 14 -31 18 -58 15
-93 -5 -44 17 -151 45 -223 14 -36 -22 6 -41 48 -11 25 -37 69 -57 96 -31 42
-41 67 -59 160 -13 61 -25 118 -28 129 -4 14 14 37 67 88 81 78 106 84 103 25z
m330 -115 c-2 -52 -47 -117 -135 -196 -63 -55 -72 -86 -27 -86 16 0 19 -4 14
-17 -4 -10 -13 -52 -20 -93 -13 -74 -33 -104 -60 -94 -7 3 -29 62 -48 130 -41
148 -39 177 21 217 20 13 79 61 131 106 53 46 101 80 110 79 12 -3 16 -14 14
-46z m945 21 c27 -24 32 -56 10 -61 -11 -2 -18 3 -18 12 0 9 -11 22 -25 28
-14 6 -25 17 -25 25 0 19 34 16 58 -4z m-548 -339 c0 -56 -22 -61 -80 -19 -34
25 -49 42 -46 54 3 9 8 28 11 43 l7 27 54 -37 c46 -31 54 -41 54 -68z m-89
-41 c21 -16 39 -31 39 -34 0 -3 -11 -11 -23 -16 -34 -16 -83 23 -73 55 9 28
10 28 57 -5z m523 -4 c10 -54 7 -77 -17 -105 l-23 -27 -110 9 c-121 10 -115 4
-89 89 l15 50 -5 -45 c-3 -24 -10 -49 -15 -55 -15 -18 -1 -25 45 -25 35 0 44
4 53 25 7 14 13 40 13 58 1 23 3 26 6 10 5 -25 11 -27 32 -14 12 8 12 12 2 25
-8 9 -21 16 -30 17 -11 0 -12 2 -3 6 7 3 24 -2 37 -11 23 -15 26 -15 42 3 26
28 40 25 47 -10z m75 -37 c1 -25 -27 -98 -34 -90 -3 3 2 19 11 37 11 22 14 46
11 74 -4 29 -3 36 3 22 5 -11 9 -30 9 -43z m196 -12 c16 -18 19 -18 44 -3 l26
17 -23 -26 c-15 -17 -20 -28 -13 -33 6 -3 11 -11 11 -17 0 -6 -8 -4 -18 6 -18
15 -20 15 -37 -4 -24 -26 -33 -25 -74 9 l-35 29 40 20 c49 26 57 27 79 2z"/>
<path d="M2539 3900 c-71 -37 -121 -112 -134 -201 -17 -113 73 -249 180 -275
28 -7 27 -4 -21 39 -55 50 -115 160 -96 179 10 10 262 -5 281 -16 4 -3 11 -23
14 -43 15 -93 97 -153 207 -153 103 0 186 54 205 133 5 19 14 27 29 27 27 0
149 -20 155 -25 2 -2 -11 -27 -28 -54 -37 -58 -85 -97 -150 -122 l-46 -18 46
-1 c85 0 174 61 222 156 9 18 27 34 42 38 29 7 34 32 8 40 -61 17 -272 41
-528 61 -353 26 -446 37 -452 50 -12 32 49 112 125 164 17 12 32 27 32 32 0
15 -53 9 -91 -11z m583 -316 c11 -23 10 -28 -7 -40 -20 -15 -38 -12 -92 13
-31 15 -41 32 -26 46 3 4 30 7 60 7 48 0 55 -3 65 -26z"/>
<path d="M3324 3859 c-4 -7 7 -22 25 -36 17 -14 43 -47 56 -74 24 -47 46 -61
60 -39 11 17 -48 113 -84 137 -38 26 -47 28 -57 12z"/>
<path d="M4645 3858 c-50 -27 -105 -102 -105 -143 0 -35 36 -13 63 38 15 30
41 61 58 71 43 25 28 59 -16 34z"/>
<path d="M3914 2647 c-3 -8 -4 -54 -2 -103 3 -81 5 -89 23 -89 18 0 20 8 23
80 2 44 0 90 -3 102 -6 25 -33 31 -41 10z"/>
<path d="M4017 2653 c-4 -3 -7 -51 -7 -105 0 -97 0 -99 23 -96 20 3 22 9 25
83 2 44 0 90 -3 102 -5 22 -25 30 -38 16z"/>
<path d="M3807 2624 c-4 -4 -7 -43 -7 -86 0 -63 3 -80 16 -85 26 -10 34 17 32
97 -2 58 -6 75 -18 78 -9 1 -19 0 -23 -4z"/>
<path d="M4120 2546 c0 -87 9 -108 36 -85 11 9 14 30 12 88 -3 70 -5 76 -25
79 -22 3 -23 1 -23 -82z"/>
<path d="M3702 2581 c-9 -5 -12 -26 -10 -67 3 -51 6 -59 23 -59 18 0 20 7 20
64 0 64 -8 78 -33 62z"/>
<path d="M4237 2583 c-4 -3 -7 -33 -7 -65 0 -45 4 -60 16 -65 22 -8 34 14 34
68 0 52 -22 84 -43 62z"/>
<path d="M3580 2500 c0 -60 0 -60 -29 -60 -28 0 -30 2 -33 48 -3 39 -6 47 -23
47 -16 0 -21 -8 -23 -42 -3 -41 -4 -43 -37 -43 -27 0 -34 4 -37 23 -4 30 -42
30 -46 -1 -4 -24 2 -24 -226 -7 l-59 5 6 -62 c18 -201 256 -435 536 -527 285
-94 692 -84 951 22 148 61 277 153 360 259 37 46 38 47 44 23 7 -29 31 -33 44
-7 10 18 8 74 -2 91 -4 6 0 34 9 63 8 28 15 71 15 96 0 42 -1 43 -27 38 -16
-3 -107 -8 -204 -11 l-177 -5 -6 26 c-8 32 -38 29 -46 -6 -5 -21 -12 -25 -40
-25 -30 0 -35 3 -36 25 -2 54 -5 61 -20 67 -21 8 -34 -14 -34 -59 0 -35 -2
-38 -29 -38 -28 0 -29 2 -24 34 8 49 -3 86 -26 86 -23 0 -28 -13 -25 -71 2
-45 0 -47 -28 -53 -40 -8 -370 -8 -541 1 l-137 6 0 59 c0 55 -1 58 -25 58 -24
0 -25 -3 -25 -60z m-337 -176 c-7 -18 -27 -13 -31 9 -2 11 2 14 17 10 12 -3
17 -11 14 -19z m1647 14 c0 -7 -4 -19 -9 -26 -6 -10 -11 -10 -21 3 -12 14 -11
18 1 26 20 12 29 11 29 -3z m-1312 -12 c2 -3 -85 -177 -104 -207 -4 -8 -24 29
-50 97 -23 59 -41 111 -39 114 3 5 187 1 193 -4z m1134 9 c5 -5 -25 -90 -71
-209 -6 -15 -19 2 -64 82 -31 55 -57 105 -57 111 0 6 35 12 88 14 48 1 90 4
93 5 3 1 8 0 11 -3z m-725 -28 c-3 -7 -31 -72 -61 -146 -31 -74 -59 -138 -64
-143 -7 -7 -49 73 -128 248 -12 29 -21 53 -19 55 2 2 65 3 140 1 101 -2 135
-6 132 -15z m393 6 c0 -13 -134 -303 -140 -303 -3 0 -30 64 -59 143 -30 78
-56 148 -58 155 -4 9 25 12 126 12 72 0 131 -3 131 -7z m-1013 -169 c-7 -7
-87 80 -87 95 0 8 8 23 17 33 16 18 18 16 45 -53 16 -39 27 -73 25 -75z m1443
106 c12 -30 11 -33 -31 -76 -24 -24 -46 -44 -50 -44 -4 0 7 36 23 80 17 44 34
78 38 75 4 -3 13 -18 20 -35z m-1086 -140 c40 -85 72 -156 71 -158 -6 -7 -169
40 -220 63 l-54 24 57 115 c31 64 60 115 65 113 4 -1 40 -72 81 -157z m395 -4
c33 -87 61 -163 61 -168 0 -4 -58 -8 -130 -8 -85 0 -130 4 -130 11 0 15 131
332 135 327 1 -2 30 -75 64 -162z m399 55 c34 -60 62 -113 62 -119 0 -5 -21
-19 -47 -30 -52 -22 -210 -65 -223 -60 -8 3 131 317 140 318 3 0 34 -49 68
-109z"/>
<path d="M3041 2341 c-7 -5 -11 -23 -9 -42 2 -26 8 -34 23 -34 16 0 21 8 23
36 3 38 -13 55 -37 40z"/>
<path d="M2961 2266 c-7 -8 -11 -34 -9 -58 2 -35 7 -43 23 -43 18 0 20 7 20
54 0 56 -13 73 -34 47z"/>
<path d="M2896 2154 c-3 -9 -6 -51 -6 -94 0 -87 5 -110 26 -110 23 0 34 36 34
114 0 87 -5 106 -30 106 -10 0 -21 -7 -24 -16z"/>
<path d="M5025 2157 c-3 -7 -4 -56 -3 -108 3 -86 5 -94 23 -94 19 0 20 7 20
105 0 92 -2 105 -18 108 -9 2 -19 -3 -22 -11z"/>
<path d="M4973 2053 c-9 -3 -13 -32 -13 -98 0 -95 8 -117 35 -95 11 9 15 35
15 95 0 82 -10 108 -37 98z"/>
<path d="M2962 1953 c3 -90 5 -98 23 -98 19 0 20 7 20 95 0 91 -1 95 -23 98
-23 3 -23 3 -20 -95z"/>
<path d="M4907 1953 c-4 -3 -7 -46 -7 -94 0 -65 4 -88 14 -92 26 -10 36 16 36
93 0 81 -18 119 -43 93z"/>
<path d="M2029 1123 c-1 -10 -1 -25 0 -33 1 -11 -1 -12 -6 -3 -15 21 -62 33
-110 26 -52 -7 -107 -48 -117 -88 -3 -13 -20 -32 -36 -42 -17 -9 -30 -21 -30
-25 0 -16 21 -18 44 -3 23 15 24 15 50 -29 27 -46 65 -66 126 -66 33 0 93 37
84 52 -4 6 -3 8 3 5 14 -9 42 24 53 61 7 25 4 41 -15 77 -12 26 -21 55 -18 66
4 13 0 19 -11 19 -9 0 -17 -8 -17 -17z m-89 -37 c0 -3 -25 -18 -55 -34 -56
-30 -71 -29 -36 2 22 20 91 44 91 32z m24 -72 c9 -36 -1 -43 -15 -10 -7 14
-15 26 -19 26 -4 0 -7 7 -7 14 0 25 34 0 41 -30z m46 31 c0 -8 -2 -15 -4 -15
-2 0 -6 7 -10 15 -3 8 -1 15 4 15 6 0 10 -7 10 -15z m55 -54 c-8 -31 -49 -77
-75 -84 -17 -4 -17 -3 0 47 10 28 24 64 31 80 l13 28 19 -23 c12 -15 16 -31
12 -48z m-188 -13 c-3 -8 -6 -5 -6 6 -1 11 2 17 5 13 3 -3 4 -12 1 -19z m73
-53 c0 -15 -18 -1 -28 20 -19 42 -14 53 8 17 11 -18 20 -35 20 -37z m-46 -24
c-8 -10 -24 14 -24 37 l1 27 13 -30 c7 -16 12 -32 10 -34z"/>
<path d="M2273 1068 c-10 -16 -63 -51 -81 -54 -8 -2 -21 -9 -30 -17 -10 -8
-25 -17 -34 -20 -10 -4 -18 -13 -18 -22 0 -12 6 -14 28 -9 15 4 32 11 39 16
20 16 87 48 99 48 7 0 15 9 19 20 3 11 12 19 18 17 7 -1 12 5 12 13 0 19 -41
25 -52 8z"/>
<path d="M2340 955 c0 -8 -5 -15 -11 -15 -6 0 -23 -8 -37 -19 -15 -10 -40 -21
-55 -25 -16 -4 -27 -12 -24 -19 7 -22 46 -19 79 6 18 13 48 30 66 37 37 14 40
25 13 40 -26 13 -31 13 -31 -5z"/>
<path d="M2397 869 c-25 -26 -26 -30 -11 -36 12 -4 25 2 41 21 44 51 17 65
-30 15z"/>
<path d="M2237 787 c-29 -24 -48 -31 -79 -32 -27 0 -44 -6 -52 -17 -13 -21 -1
-35 17 -20 7 6 22 9 34 6 12 -3 32 0 44 6 58 30 108 66 105 75 -6 20 -32 13
-69 -18z"/>
<path d="M2240 145 c-10 -12 -10 -18 0 -30 13 -16 40 -21 40 -7 0 19 -13 52
-20 52 -4 0 -13 -7 -20 -15z"/>
<path d="M2195 110 c-9 -15 3 -30 24 -30 25 0 33 11 20 27 -13 15 -35 17 -44
3z"/>
<path d="M2155 80 c-9 -29 11 -50 47 -50 26 0 29 2 18 15 -7 8 -22 13 -34 11
-11 -2 -15 -1 -8 1 16 5 12 35 -5 40 -6 2 -14 -5 -18 -17z"/>
<path d="M2240 70 c-11 -7 -12 -12 -3 -21 13 -13 33 -4 33 17 0 16 -9 18 -30
4z"/>
<path d="M2487 94 c-24 -13 -26 -18 -16 -30 25 -30 46 -35 69 -16 20 16 21 21
9 40 -16 26 -24 26 -62 6z"/>
</g>
</svg>
